<mxfile host="app.diagrams.net" modified="2021-02-03T03:00:52.204Z" agent="5.0 (Macintosh; Intel Mac OS X 10_15_6) AppleWebKit/605.1.15 (KHTML, like Gecko) Version/14.0 Safari/605.1.15" etag="s7h8wAqPNgXp_J7N-xFi" version="14.2.9" type="github">
  <diagram id="ze_9xBODNbplpbfkNC_i" name="Page-1">
    <mxGraphModel dx="965" dy="574" grid="1" gridSize="10" guides="1" tooltips="1" connect="1" arrows="1" fold="1" page="1" pageScale="1" pageWidth="850" pageHeight="1100" math="1" shadow="0">
      <root>
        <mxCell id="0" />
        <mxCell id="1" parent="0" />
        <mxCell id="MeaK_7pMiD_8SfxyLZPK-196" value="" style="rounded=0;whiteSpace=wrap;html=1;fillColor=none;" parent="1" vertex="1">
          <mxGeometry x="140" y="79" width="240" height="201" as="geometry" />
        </mxCell>
        <mxCell id="MeaK_7pMiD_8SfxyLZPK-308" value="" style="rounded=0;whiteSpace=wrap;html=1;dashed=1;fillColor=none;strokeColor=none;" parent="1" vertex="1">
          <mxGeometry x="110" y="30" width="940" height="490" as="geometry" />
        </mxCell>
        <mxCell id="MeaK_7pMiD_8SfxyLZPK-307" value="" style="rounded=0;whiteSpace=wrap;html=1;fillColor=none;dashed=1;strokeColor=#0000CC;" parent="1" vertex="1">
          <mxGeometry x="120" y="300" width="830" height="200" as="geometry" />
        </mxCell>
        <mxCell id="MeaK_7pMiD_8SfxyLZPK-309" value="" style="rounded=0;whiteSpace=wrap;html=1;dashed=1;fillColor=none;" parent="1" vertex="1">
          <mxGeometry x="120" y="40" width="830" height="250" as="geometry" />
        </mxCell>
        <mxCell id="MeaK_7pMiD_8SfxyLZPK-197" value="" style="rounded=0;whiteSpace=wrap;html=1;fillColor=none;" parent="1" vertex="1">
          <mxGeometry x="402" y="80" width="240" height="200" as="geometry" />
        </mxCell>
        <mxCell id="MeaK_7pMiD_8SfxyLZPK-231" value="" style="rounded=0;whiteSpace=wrap;html=1;fillColor=none;" parent="1" vertex="1">
          <mxGeometry x="684" y="81" width="240" height="200" as="geometry" />
        </mxCell>
        <mxCell id="MeaK_7pMiD_8SfxyLZPK-96" value="" style="group" parent="1" vertex="1" connectable="0">
          <mxGeometry x="140" y="80" width="240" height="200" as="geometry" />
        </mxCell>
        <mxCell id="MeaK_7pMiD_8SfxyLZPK-58" value="`\text{SNP}_1^1`" style="ellipse;whiteSpace=wrap;html=1;aspect=fixed;" parent="MeaK_7pMiD_8SfxyLZPK-96" vertex="1">
          <mxGeometry x="20" width="40" height="40" as="geometry" />
        </mxCell>
        <mxCell id="MeaK_7pMiD_8SfxyLZPK-59" value="`\text{SNP}_2^1`" style="ellipse;whiteSpace=wrap;html=1;aspect=fixed;" parent="MeaK_7pMiD_8SfxyLZPK-96" vertex="1">
          <mxGeometry x="100" width="40" height="40" as="geometry" />
        </mxCell>
        <mxCell id="MeaK_7pMiD_8SfxyLZPK-60" value="`\text{SNP}_{s1}^1`" style="ellipse;whiteSpace=wrap;html=1;aspect=fixed;" parent="MeaK_7pMiD_8SfxyLZPK-96" vertex="1">
          <mxGeometry x="180" width="40" height="40" as="geometry" />
        </mxCell>
        <mxCell id="MeaK_7pMiD_8SfxyLZPK-61" value="&lt;b&gt;&lt;font style=&quot;font-size: 20px&quot;&gt;. . .&lt;/font&gt;&lt;/b&gt;" style="text;html=1;strokeColor=none;fillColor=none;align=center;verticalAlign=middle;whiteSpace=wrap;rounded=0;" parent="MeaK_7pMiD_8SfxyLZPK-96" vertex="1">
          <mxGeometry x="140" y="10" width="40" height="20" as="geometry" />
        </mxCell>
        <mxCell id="MeaK_7pMiD_8SfxyLZPK-62" value="" style="endArrow=classic;html=1;exitX=0.5;exitY=1;exitDx=0;exitDy=0;entryX=0.5;entryY=0;entryDx=0;entryDy=0;" parent="MeaK_7pMiD_8SfxyLZPK-96" source="MeaK_7pMiD_8SfxyLZPK-58" target="MeaK_7pMiD_8SfxyLZPK-63" edge="1">
          <mxGeometry width="50" height="50" relative="1" as="geometry">
            <mxPoint x="30" y="90" as="sourcePoint" />
            <mxPoint x="-20" y="70" as="targetPoint" />
          </mxGeometry>
        </mxCell>
        <mxCell id="MeaK_7pMiD_8SfxyLZPK-63" value="`h_{11}^{(1)}`&amp;nbsp;" style="ellipse;whiteSpace=wrap;html=1;aspect=fixed;" parent="MeaK_7pMiD_8SfxyLZPK-96" vertex="1">
          <mxGeometry y="80" width="40" height="40" as="geometry" />
        </mxCell>
        <mxCell id="MeaK_7pMiD_8SfxyLZPK-64" value="`h_{12}^{(1)}`&amp;nbsp;" style="ellipse;whiteSpace=wrap;html=1;aspect=fixed;" parent="MeaK_7pMiD_8SfxyLZPK-96" vertex="1">
          <mxGeometry x="60" y="80" width="40" height="40" as="geometry" />
        </mxCell>
        <mxCell id="MeaK_7pMiD_8SfxyLZPK-65" value="`h_{13}^{(1)}`&amp;nbsp;" style="ellipse;whiteSpace=wrap;html=1;aspect=fixed;" parent="MeaK_7pMiD_8SfxyLZPK-96" vertex="1">
          <mxGeometry x="130" y="80" width="40" height="40" as="geometry" />
        </mxCell>
        <mxCell id="MeaK_7pMiD_8SfxyLZPK-66" value="`h_{1n_1}^{(1)}`&amp;nbsp;" style="ellipse;whiteSpace=wrap;html=1;aspect=fixed;" parent="MeaK_7pMiD_8SfxyLZPK-96" vertex="1">
          <mxGeometry x="200" y="80" width="40" height="40" as="geometry" />
        </mxCell>
        <mxCell id="MeaK_7pMiD_8SfxyLZPK-67" value="&lt;b&gt;&lt;font style=&quot;font-size: 18px&quot;&gt;. . .&lt;/font&gt;&lt;/b&gt;" style="text;html=1;strokeColor=none;fillColor=none;align=center;verticalAlign=middle;whiteSpace=wrap;rounded=0;" parent="MeaK_7pMiD_8SfxyLZPK-96" vertex="1">
          <mxGeometry x="164" y="86" width="40" height="20" as="geometry" />
        </mxCell>
        <mxCell id="MeaK_7pMiD_8SfxyLZPK-68" value="" style="endArrow=classic;html=1;exitX=0.5;exitY=1;exitDx=0;exitDy=0;" parent="MeaK_7pMiD_8SfxyLZPK-96" edge="1">
          <mxGeometry width="50" height="50" relative="1" as="geometry">
            <mxPoint x="120" y="40" as="sourcePoint" />
            <mxPoint x="80" y="80" as="targetPoint" />
          </mxGeometry>
        </mxCell>
        <mxCell id="MeaK_7pMiD_8SfxyLZPK-69" value="" style="endArrow=classic;html=1;exitX=0.5;exitY=1;exitDx=0;exitDy=0;entryX=0.5;entryY=0;entryDx=0;entryDy=0;" parent="MeaK_7pMiD_8SfxyLZPK-96" source="MeaK_7pMiD_8SfxyLZPK-60" target="MeaK_7pMiD_8SfxyLZPK-65" edge="1">
          <mxGeometry width="50" height="50" relative="1" as="geometry">
            <mxPoint x="205.85786437626894" y="37.142135623731065" as="sourcePoint" />
            <mxPoint x="169" y="81" as="targetPoint" />
          </mxGeometry>
        </mxCell>
        <mxCell id="MeaK_7pMiD_8SfxyLZPK-70" value="" style="endArrow=classic;html=1;exitX=0.5;exitY=1;exitDx=0;exitDy=0;entryX=0.5;entryY=0;entryDx=0;entryDy=0;" parent="MeaK_7pMiD_8SfxyLZPK-96" source="MeaK_7pMiD_8SfxyLZPK-60" target="MeaK_7pMiD_8SfxyLZPK-66" edge="1">
          <mxGeometry width="50" height="50" relative="1" as="geometry">
            <mxPoint x="140" y="190" as="sourcePoint" />
            <mxPoint x="260" y="80" as="targetPoint" />
          </mxGeometry>
        </mxCell>
        <mxCell id="MeaK_7pMiD_8SfxyLZPK-71" value="" style="endArrow=classic;html=1;exitX=0.5;exitY=1;exitDx=0;exitDy=0;entryX=0.5;entryY=0;entryDx=0;entryDy=0;" parent="MeaK_7pMiD_8SfxyLZPK-96" source="MeaK_7pMiD_8SfxyLZPK-60" target="MeaK_7pMiD_8SfxyLZPK-63" edge="1">
          <mxGeometry width="50" height="50" relative="1" as="geometry">
            <mxPoint x="220" y="190" as="sourcePoint" />
            <mxPoint x="270" y="140" as="targetPoint" />
          </mxGeometry>
        </mxCell>
        <mxCell id="MeaK_7pMiD_8SfxyLZPK-72" value="" style="endArrow=classic;html=1;exitX=0.5;exitY=1;exitDx=0;exitDy=0;entryX=0.5;entryY=0;entryDx=0;entryDy=0;" parent="MeaK_7pMiD_8SfxyLZPK-96" source="MeaK_7pMiD_8SfxyLZPK-60" target="MeaK_7pMiD_8SfxyLZPK-64" edge="1">
          <mxGeometry width="50" height="50" relative="1" as="geometry">
            <mxPoint x="220" y="190" as="sourcePoint" />
            <mxPoint x="270" y="140" as="targetPoint" />
          </mxGeometry>
        </mxCell>
        <mxCell id="MeaK_7pMiD_8SfxyLZPK-73" value="" style="endArrow=classic;html=1;entryX=0.5;entryY=0;entryDx=0;entryDy=0;" parent="MeaK_7pMiD_8SfxyLZPK-96" target="MeaK_7pMiD_8SfxyLZPK-64" edge="1">
          <mxGeometry width="50" height="50" relative="1" as="geometry">
            <mxPoint x="40" y="40" as="sourcePoint" />
            <mxPoint x="90" y="80" as="targetPoint" />
          </mxGeometry>
        </mxCell>
        <mxCell id="MeaK_7pMiD_8SfxyLZPK-74" value="" style="endArrow=classic;html=1;entryX=0.5;entryY=0;entryDx=0;entryDy=0;" parent="MeaK_7pMiD_8SfxyLZPK-96" target="MeaK_7pMiD_8SfxyLZPK-65" edge="1">
          <mxGeometry width="50" height="50" relative="1" as="geometry">
            <mxPoint x="40" y="40" as="sourcePoint" />
            <mxPoint x="250" y="140" as="targetPoint" />
          </mxGeometry>
        </mxCell>
        <mxCell id="MeaK_7pMiD_8SfxyLZPK-75" value="" style="endArrow=classic;html=1;exitX=0.5;exitY=1;exitDx=0;exitDy=0;entryX=0.5;entryY=0;entryDx=0;entryDy=0;" parent="MeaK_7pMiD_8SfxyLZPK-96" source="MeaK_7pMiD_8SfxyLZPK-58" target="MeaK_7pMiD_8SfxyLZPK-66" edge="1">
          <mxGeometry width="50" height="50" relative="1" as="geometry">
            <mxPoint x="200" y="160" as="sourcePoint" />
            <mxPoint x="250" y="110" as="targetPoint" />
          </mxGeometry>
        </mxCell>
        <mxCell id="MeaK_7pMiD_8SfxyLZPK-76" value="" style="endArrow=classic;html=1;exitX=0.5;exitY=1;exitDx=0;exitDy=0;entryX=0.5;entryY=0;entryDx=0;entryDy=0;" parent="MeaK_7pMiD_8SfxyLZPK-96" source="MeaK_7pMiD_8SfxyLZPK-59" target="MeaK_7pMiD_8SfxyLZPK-63" edge="1">
          <mxGeometry width="50" height="50" relative="1" as="geometry">
            <mxPoint x="200" y="160" as="sourcePoint" />
            <mxPoint x="250" y="110" as="targetPoint" />
          </mxGeometry>
        </mxCell>
        <mxCell id="MeaK_7pMiD_8SfxyLZPK-77" value="" style="endArrow=classic;html=1;exitX=0.5;exitY=1;exitDx=0;exitDy=0;entryX=0.5;entryY=0;entryDx=0;entryDy=0;" parent="MeaK_7pMiD_8SfxyLZPK-96" source="MeaK_7pMiD_8SfxyLZPK-59" target="MeaK_7pMiD_8SfxyLZPK-65" edge="1">
          <mxGeometry width="50" height="50" relative="1" as="geometry">
            <mxPoint x="170" y="270" as="sourcePoint" />
            <mxPoint x="250" y="110" as="targetPoint" />
          </mxGeometry>
        </mxCell>
        <mxCell id="MeaK_7pMiD_8SfxyLZPK-78" value="" style="endArrow=classic;html=1;exitX=0.5;exitY=1;exitDx=0;exitDy=0;entryX=0.5;entryY=0;entryDx=0;entryDy=0;" parent="MeaK_7pMiD_8SfxyLZPK-96" source="MeaK_7pMiD_8SfxyLZPK-59" target="MeaK_7pMiD_8SfxyLZPK-66" edge="1">
          <mxGeometry width="50" height="50" relative="1" as="geometry">
            <mxPoint x="200" y="160" as="sourcePoint" />
            <mxPoint x="250" y="110" as="targetPoint" />
          </mxGeometry>
        </mxCell>
        <mxCell id="MeaK_7pMiD_8SfxyLZPK-80" value="`h_{11}^{(2)}`&amp;nbsp;" style="ellipse;whiteSpace=wrap;html=1;aspect=fixed;" parent="MeaK_7pMiD_8SfxyLZPK-96" vertex="1">
          <mxGeometry x="60" y="160" width="40" height="40" as="geometry" />
        </mxCell>
        <mxCell id="MeaK_7pMiD_8SfxyLZPK-81" value="`h_{1n_2}^{(2)}`&amp;nbsp;" style="ellipse;whiteSpace=wrap;html=1;aspect=fixed;" parent="MeaK_7pMiD_8SfxyLZPK-96" vertex="1">
          <mxGeometry x="140" y="160" width="40" height="40" as="geometry" />
        </mxCell>
        <mxCell id="MeaK_7pMiD_8SfxyLZPK-82" value="&lt;b&gt;&lt;font style=&quot;font-size: 20px&quot;&gt;. . .&lt;/font&gt;&lt;/b&gt;" style="text;html=1;strokeColor=none;fillColor=none;align=center;verticalAlign=middle;whiteSpace=wrap;rounded=0;" parent="MeaK_7pMiD_8SfxyLZPK-96" vertex="1">
          <mxGeometry x="100" y="170" width="40" height="20" as="geometry" />
        </mxCell>
        <mxCell id="MeaK_7pMiD_8SfxyLZPK-83" value="" style="endArrow=classic;html=1;exitX=0.5;exitY=1;exitDx=0;exitDy=0;entryX=0.5;entryY=0;entryDx=0;entryDy=0;" parent="MeaK_7pMiD_8SfxyLZPK-96" source="MeaK_7pMiD_8SfxyLZPK-63" target="MeaK_7pMiD_8SfxyLZPK-80" edge="1">
          <mxGeometry width="50" height="50" relative="1" as="geometry">
            <mxPoint x="-120" y="200" as="sourcePoint" />
            <mxPoint x="-70" y="150" as="targetPoint" />
          </mxGeometry>
        </mxCell>
        <mxCell id="MeaK_7pMiD_8SfxyLZPK-84" value="" style="endArrow=classic;html=1;exitX=0.5;exitY=1;exitDx=0;exitDy=0;entryX=0.5;entryY=0;entryDx=0;entryDy=0;" parent="MeaK_7pMiD_8SfxyLZPK-96" source="MeaK_7pMiD_8SfxyLZPK-64" target="MeaK_7pMiD_8SfxyLZPK-80" edge="1">
          <mxGeometry width="50" height="50" relative="1" as="geometry">
            <mxPoint x="10" y="130" as="sourcePoint" />
            <mxPoint x="10" y="170" as="targetPoint" />
          </mxGeometry>
        </mxCell>
        <mxCell id="MeaK_7pMiD_8SfxyLZPK-85" value="" style="endArrow=classic;html=1;exitX=0.5;exitY=1;exitDx=0;exitDy=0;entryX=0.5;entryY=0;entryDx=0;entryDy=0;" parent="MeaK_7pMiD_8SfxyLZPK-96" source="MeaK_7pMiD_8SfxyLZPK-65" target="MeaK_7pMiD_8SfxyLZPK-80" edge="1">
          <mxGeometry width="50" height="50" relative="1" as="geometry">
            <mxPoint x="20" y="140" as="sourcePoint" />
            <mxPoint x="20" y="180" as="targetPoint" />
          </mxGeometry>
        </mxCell>
        <mxCell id="MeaK_7pMiD_8SfxyLZPK-86" value="" style="endArrow=classic;html=1;exitX=0.5;exitY=1;exitDx=0;exitDy=0;entryX=0.5;entryY=0;entryDx=0;entryDy=0;" parent="MeaK_7pMiD_8SfxyLZPK-96" source="MeaK_7pMiD_8SfxyLZPK-66" target="MeaK_7pMiD_8SfxyLZPK-80" edge="1">
          <mxGeometry width="50" height="50" relative="1" as="geometry">
            <mxPoint x="30" y="150" as="sourcePoint" />
            <mxPoint x="30" y="190" as="targetPoint" />
          </mxGeometry>
        </mxCell>
        <mxCell id="MeaK_7pMiD_8SfxyLZPK-87" value="" style="endArrow=classic;html=1;exitX=0.5;exitY=1;exitDx=0;exitDy=0;entryX=0.5;entryY=0;entryDx=0;entryDy=0;" parent="MeaK_7pMiD_8SfxyLZPK-96" source="MeaK_7pMiD_8SfxyLZPK-63" target="MeaK_7pMiD_8SfxyLZPK-81" edge="1">
          <mxGeometry width="50" height="50" relative="1" as="geometry">
            <mxPoint x="120" y="240" as="sourcePoint" />
            <mxPoint x="120" y="280" as="targetPoint" />
          </mxGeometry>
        </mxCell>
        <mxCell id="MeaK_7pMiD_8SfxyLZPK-88" value="" style="endArrow=classic;html=1;exitX=0.5;exitY=1;exitDx=0;exitDy=0;entryX=0.5;entryY=0;entryDx=0;entryDy=0;" parent="MeaK_7pMiD_8SfxyLZPK-96" source="MeaK_7pMiD_8SfxyLZPK-64" target="MeaK_7pMiD_8SfxyLZPK-81" edge="1">
          <mxGeometry width="50" height="50" relative="1" as="geometry">
            <mxPoint x="130" y="250" as="sourcePoint" />
            <mxPoint x="130" y="290" as="targetPoint" />
          </mxGeometry>
        </mxCell>
        <mxCell id="MeaK_7pMiD_8SfxyLZPK-89" value="" style="endArrow=classic;html=1;exitX=0.5;exitY=1;exitDx=0;exitDy=0;entryX=0.5;entryY=0;entryDx=0;entryDy=0;" parent="MeaK_7pMiD_8SfxyLZPK-96" source="MeaK_7pMiD_8SfxyLZPK-65" target="MeaK_7pMiD_8SfxyLZPK-81" edge="1">
          <mxGeometry width="50" height="50" relative="1" as="geometry">
            <mxPoint x="140" y="260" as="sourcePoint" />
            <mxPoint x="140" y="300" as="targetPoint" />
          </mxGeometry>
        </mxCell>
        <mxCell id="MeaK_7pMiD_8SfxyLZPK-90" value="" style="endArrow=classic;html=1;exitX=0.5;exitY=1;exitDx=0;exitDy=0;entryX=0.5;entryY=0;entryDx=0;entryDy=0;" parent="MeaK_7pMiD_8SfxyLZPK-96" source="MeaK_7pMiD_8SfxyLZPK-66" target="MeaK_7pMiD_8SfxyLZPK-81" edge="1">
          <mxGeometry width="50" height="50" relative="1" as="geometry">
            <mxPoint x="150" y="270" as="sourcePoint" />
            <mxPoint x="150" y="310" as="targetPoint" />
          </mxGeometry>
        </mxCell>
        <mxCell id="MeaK_7pMiD_8SfxyLZPK-163" value="" style="group" parent="1" vertex="1" connectable="0">
          <mxGeometry x="403" y="79" width="240" height="200" as="geometry" />
        </mxCell>
        <mxCell id="MeaK_7pMiD_8SfxyLZPK-164" value="`\text{SNP}_1^2`" style="ellipse;whiteSpace=wrap;html=1;aspect=fixed;" parent="MeaK_7pMiD_8SfxyLZPK-163" vertex="1">
          <mxGeometry x="20" width="40" height="40" as="geometry" />
        </mxCell>
        <mxCell id="MeaK_7pMiD_8SfxyLZPK-165" value="`\text{SNP}_2^2`" style="ellipse;whiteSpace=wrap;html=1;aspect=fixed;" parent="MeaK_7pMiD_8SfxyLZPK-163" vertex="1">
          <mxGeometry x="100" width="40" height="40" as="geometry" />
        </mxCell>
        <mxCell id="MeaK_7pMiD_8SfxyLZPK-166" value="`\text{SNP}_{s2}^2`" style="ellipse;whiteSpace=wrap;html=1;aspect=fixed;" parent="MeaK_7pMiD_8SfxyLZPK-163" vertex="1">
          <mxGeometry x="180" width="40" height="40" as="geometry" />
        </mxCell>
        <mxCell id="MeaK_7pMiD_8SfxyLZPK-167" value="&lt;b&gt;&lt;font style=&quot;font-size: 20px&quot;&gt;. . .&lt;/font&gt;&lt;/b&gt;" style="text;html=1;strokeColor=none;fillColor=none;align=center;verticalAlign=middle;whiteSpace=wrap;rounded=0;" parent="MeaK_7pMiD_8SfxyLZPK-163" vertex="1">
          <mxGeometry x="140" y="10" width="40" height="20" as="geometry" />
        </mxCell>
        <mxCell id="MeaK_7pMiD_8SfxyLZPK-168" value="" style="endArrow=classic;html=1;exitX=0.5;exitY=1;exitDx=0;exitDy=0;entryX=0.5;entryY=0;entryDx=0;entryDy=0;" parent="MeaK_7pMiD_8SfxyLZPK-163" source="MeaK_7pMiD_8SfxyLZPK-164" target="MeaK_7pMiD_8SfxyLZPK-169" edge="1">
          <mxGeometry width="50" height="50" relative="1" as="geometry">
            <mxPoint x="30" y="90" as="sourcePoint" />
            <mxPoint x="-20" y="70" as="targetPoint" />
          </mxGeometry>
        </mxCell>
        <mxCell id="MeaK_7pMiD_8SfxyLZPK-169" value="`h_{21}^{(1)}`&amp;nbsp;" style="ellipse;whiteSpace=wrap;html=1;aspect=fixed;" parent="MeaK_7pMiD_8SfxyLZPK-163" vertex="1">
          <mxGeometry y="80" width="40" height="40" as="geometry" />
        </mxCell>
        <mxCell id="MeaK_7pMiD_8SfxyLZPK-170" value="`h_{22}^{(1)}`&amp;nbsp;" style="ellipse;whiteSpace=wrap;html=1;aspect=fixed;" parent="MeaK_7pMiD_8SfxyLZPK-163" vertex="1">
          <mxGeometry x="60" y="80" width="40" height="40" as="geometry" />
        </mxCell>
        <mxCell id="MeaK_7pMiD_8SfxyLZPK-171" value="`h_{23}^{(1)}`&amp;nbsp;" style="ellipse;whiteSpace=wrap;html=1;aspect=fixed;" parent="MeaK_7pMiD_8SfxyLZPK-163" vertex="1">
          <mxGeometry x="130" y="80" width="40" height="40" as="geometry" />
        </mxCell>
        <mxCell id="MeaK_7pMiD_8SfxyLZPK-172" value="`h_{2n_2}^{(1)}`&amp;nbsp;" style="ellipse;whiteSpace=wrap;html=1;aspect=fixed;" parent="MeaK_7pMiD_8SfxyLZPK-163" vertex="1">
          <mxGeometry x="200" y="80" width="40" height="40" as="geometry" />
        </mxCell>
        <mxCell id="MeaK_7pMiD_8SfxyLZPK-173" value="&lt;b&gt;&lt;font style=&quot;font-size: 18px&quot;&gt;. . .&lt;/font&gt;&lt;/b&gt;" style="text;html=1;strokeColor=none;fillColor=none;align=center;verticalAlign=middle;whiteSpace=wrap;rounded=0;" parent="MeaK_7pMiD_8SfxyLZPK-163" vertex="1">
          <mxGeometry x="164" y="86" width="40" height="20" as="geometry" />
        </mxCell>
        <mxCell id="MeaK_7pMiD_8SfxyLZPK-174" value="" style="endArrow=classic;html=1;exitX=0.5;exitY=1;exitDx=0;exitDy=0;" parent="MeaK_7pMiD_8SfxyLZPK-163" edge="1">
          <mxGeometry width="50" height="50" relative="1" as="geometry">
            <mxPoint x="120" y="40" as="sourcePoint" />
            <mxPoint x="80" y="80" as="targetPoint" />
          </mxGeometry>
        </mxCell>
        <mxCell id="MeaK_7pMiD_8SfxyLZPK-175" value="" style="endArrow=classic;html=1;exitX=0.5;exitY=1;exitDx=0;exitDy=0;entryX=0.5;entryY=0;entryDx=0;entryDy=0;" parent="MeaK_7pMiD_8SfxyLZPK-163" source="MeaK_7pMiD_8SfxyLZPK-166" target="MeaK_7pMiD_8SfxyLZPK-171" edge="1">
          <mxGeometry width="50" height="50" relative="1" as="geometry">
            <mxPoint x="205.85786437626894" y="37.142135623731065" as="sourcePoint" />
            <mxPoint x="169" y="81" as="targetPoint" />
          </mxGeometry>
        </mxCell>
        <mxCell id="MeaK_7pMiD_8SfxyLZPK-176" value="" style="endArrow=classic;html=1;exitX=0.5;exitY=1;exitDx=0;exitDy=0;entryX=0.5;entryY=0;entryDx=0;entryDy=0;" parent="MeaK_7pMiD_8SfxyLZPK-163" source="MeaK_7pMiD_8SfxyLZPK-166" target="MeaK_7pMiD_8SfxyLZPK-172" edge="1">
          <mxGeometry width="50" height="50" relative="1" as="geometry">
            <mxPoint x="140" y="190" as="sourcePoint" />
            <mxPoint x="260" y="80" as="targetPoint" />
          </mxGeometry>
        </mxCell>
        <mxCell id="MeaK_7pMiD_8SfxyLZPK-177" value="" style="endArrow=classic;html=1;exitX=0.5;exitY=1;exitDx=0;exitDy=0;entryX=0.5;entryY=0;entryDx=0;entryDy=0;" parent="MeaK_7pMiD_8SfxyLZPK-163" source="MeaK_7pMiD_8SfxyLZPK-166" target="MeaK_7pMiD_8SfxyLZPK-169" edge="1">
          <mxGeometry width="50" height="50" relative="1" as="geometry">
            <mxPoint x="220" y="190" as="sourcePoint" />
            <mxPoint x="270" y="140" as="targetPoint" />
          </mxGeometry>
        </mxCell>
        <mxCell id="MeaK_7pMiD_8SfxyLZPK-178" value="" style="endArrow=classic;html=1;exitX=0.5;exitY=1;exitDx=0;exitDy=0;entryX=0.5;entryY=0;entryDx=0;entryDy=0;" parent="MeaK_7pMiD_8SfxyLZPK-163" source="MeaK_7pMiD_8SfxyLZPK-166" target="MeaK_7pMiD_8SfxyLZPK-170" edge="1">
          <mxGeometry width="50" height="50" relative="1" as="geometry">
            <mxPoint x="220" y="190" as="sourcePoint" />
            <mxPoint x="270" y="140" as="targetPoint" />
          </mxGeometry>
        </mxCell>
        <mxCell id="MeaK_7pMiD_8SfxyLZPK-179" value="" style="endArrow=classic;html=1;entryX=0.5;entryY=0;entryDx=0;entryDy=0;" parent="MeaK_7pMiD_8SfxyLZPK-163" target="MeaK_7pMiD_8SfxyLZPK-170" edge="1">
          <mxGeometry width="50" height="50" relative="1" as="geometry">
            <mxPoint x="40" y="40" as="sourcePoint" />
            <mxPoint x="90" y="80" as="targetPoint" />
          </mxGeometry>
        </mxCell>
        <mxCell id="MeaK_7pMiD_8SfxyLZPK-180" value="" style="endArrow=classic;html=1;entryX=0.5;entryY=0;entryDx=0;entryDy=0;" parent="MeaK_7pMiD_8SfxyLZPK-163" target="MeaK_7pMiD_8SfxyLZPK-171" edge="1">
          <mxGeometry width="50" height="50" relative="1" as="geometry">
            <mxPoint x="40" y="40" as="sourcePoint" />
            <mxPoint x="250" y="140" as="targetPoint" />
          </mxGeometry>
        </mxCell>
        <mxCell id="MeaK_7pMiD_8SfxyLZPK-181" value="" style="endArrow=classic;html=1;exitX=0.5;exitY=1;exitDx=0;exitDy=0;entryX=0.5;entryY=0;entryDx=0;entryDy=0;" parent="MeaK_7pMiD_8SfxyLZPK-163" source="MeaK_7pMiD_8SfxyLZPK-164" target="MeaK_7pMiD_8SfxyLZPK-172" edge="1">
          <mxGeometry width="50" height="50" relative="1" as="geometry">
            <mxPoint x="200" y="160" as="sourcePoint" />
            <mxPoint x="250" y="110" as="targetPoint" />
          </mxGeometry>
        </mxCell>
        <mxCell id="MeaK_7pMiD_8SfxyLZPK-182" value="" style="endArrow=classic;html=1;exitX=0.5;exitY=1;exitDx=0;exitDy=0;entryX=0.5;entryY=0;entryDx=0;entryDy=0;" parent="MeaK_7pMiD_8SfxyLZPK-163" source="MeaK_7pMiD_8SfxyLZPK-165" target="MeaK_7pMiD_8SfxyLZPK-169" edge="1">
          <mxGeometry width="50" height="50" relative="1" as="geometry">
            <mxPoint x="200" y="160" as="sourcePoint" />
            <mxPoint x="250" y="110" as="targetPoint" />
          </mxGeometry>
        </mxCell>
        <mxCell id="MeaK_7pMiD_8SfxyLZPK-183" value="" style="endArrow=classic;html=1;exitX=0.5;exitY=1;exitDx=0;exitDy=0;entryX=0.5;entryY=0;entryDx=0;entryDy=0;" parent="MeaK_7pMiD_8SfxyLZPK-163" source="MeaK_7pMiD_8SfxyLZPK-165" target="MeaK_7pMiD_8SfxyLZPK-171" edge="1">
          <mxGeometry width="50" height="50" relative="1" as="geometry">
            <mxPoint x="170" y="270" as="sourcePoint" />
            <mxPoint x="250" y="110" as="targetPoint" />
          </mxGeometry>
        </mxCell>
        <mxCell id="MeaK_7pMiD_8SfxyLZPK-184" value="" style="endArrow=classic;html=1;exitX=0.5;exitY=1;exitDx=0;exitDy=0;entryX=0.5;entryY=0;entryDx=0;entryDy=0;" parent="MeaK_7pMiD_8SfxyLZPK-163" source="MeaK_7pMiD_8SfxyLZPK-165" target="MeaK_7pMiD_8SfxyLZPK-172" edge="1">
          <mxGeometry width="50" height="50" relative="1" as="geometry">
            <mxPoint x="200" y="160" as="sourcePoint" />
            <mxPoint x="250" y="110" as="targetPoint" />
          </mxGeometry>
        </mxCell>
        <mxCell id="MeaK_7pMiD_8SfxyLZPK-185" value="`h_{21}^{(2)}`&amp;nbsp;" style="ellipse;whiteSpace=wrap;html=1;aspect=fixed;" parent="MeaK_7pMiD_8SfxyLZPK-163" vertex="1">
          <mxGeometry x="60" y="160" width="40" height="40" as="geometry" />
        </mxCell>
        <mxCell id="MeaK_7pMiD_8SfxyLZPK-186" value="`h_{2n_2}^{(2)}`&amp;nbsp;" style="ellipse;whiteSpace=wrap;html=1;aspect=fixed;" parent="MeaK_7pMiD_8SfxyLZPK-163" vertex="1">
          <mxGeometry x="140" y="160" width="40" height="40" as="geometry" />
        </mxCell>
        <mxCell id="MeaK_7pMiD_8SfxyLZPK-187" value="&lt;b&gt;&lt;font style=&quot;font-size: 20px&quot;&gt;. . .&lt;/font&gt;&lt;/b&gt;" style="text;html=1;strokeColor=none;fillColor=none;align=center;verticalAlign=middle;whiteSpace=wrap;rounded=0;" parent="MeaK_7pMiD_8SfxyLZPK-163" vertex="1">
          <mxGeometry x="100" y="170" width="40" height="20" as="geometry" />
        </mxCell>
        <mxCell id="MeaK_7pMiD_8SfxyLZPK-188" value="" style="endArrow=classic;html=1;exitX=0.5;exitY=1;exitDx=0;exitDy=0;entryX=0.5;entryY=0;entryDx=0;entryDy=0;" parent="MeaK_7pMiD_8SfxyLZPK-163" source="MeaK_7pMiD_8SfxyLZPK-169" target="MeaK_7pMiD_8SfxyLZPK-185" edge="1">
          <mxGeometry width="50" height="50" relative="1" as="geometry">
            <mxPoint x="-120" y="200" as="sourcePoint" />
            <mxPoint x="-70" y="150" as="targetPoint" />
          </mxGeometry>
        </mxCell>
        <mxCell id="MeaK_7pMiD_8SfxyLZPK-189" value="" style="endArrow=classic;html=1;exitX=0.5;exitY=1;exitDx=0;exitDy=0;entryX=0.5;entryY=0;entryDx=0;entryDy=0;" parent="MeaK_7pMiD_8SfxyLZPK-163" source="MeaK_7pMiD_8SfxyLZPK-170" target="MeaK_7pMiD_8SfxyLZPK-185" edge="1">
          <mxGeometry width="50" height="50" relative="1" as="geometry">
            <mxPoint x="10" y="130" as="sourcePoint" />
            <mxPoint x="10" y="170" as="targetPoint" />
          </mxGeometry>
        </mxCell>
        <mxCell id="MeaK_7pMiD_8SfxyLZPK-190" value="" style="endArrow=classic;html=1;exitX=0.5;exitY=1;exitDx=0;exitDy=0;entryX=0.5;entryY=0;entryDx=0;entryDy=0;" parent="MeaK_7pMiD_8SfxyLZPK-163" source="MeaK_7pMiD_8SfxyLZPK-171" target="MeaK_7pMiD_8SfxyLZPK-185" edge="1">
          <mxGeometry width="50" height="50" relative="1" as="geometry">
            <mxPoint x="20" y="140" as="sourcePoint" />
            <mxPoint x="20" y="180" as="targetPoint" />
          </mxGeometry>
        </mxCell>
        <mxCell id="MeaK_7pMiD_8SfxyLZPK-191" value="" style="endArrow=classic;html=1;exitX=0.5;exitY=1;exitDx=0;exitDy=0;entryX=0.5;entryY=0;entryDx=0;entryDy=0;" parent="MeaK_7pMiD_8SfxyLZPK-163" source="MeaK_7pMiD_8SfxyLZPK-172" target="MeaK_7pMiD_8SfxyLZPK-185" edge="1">
          <mxGeometry width="50" height="50" relative="1" as="geometry">
            <mxPoint x="30" y="150" as="sourcePoint" />
            <mxPoint x="30" y="190" as="targetPoint" />
          </mxGeometry>
        </mxCell>
        <mxCell id="MeaK_7pMiD_8SfxyLZPK-192" value="" style="endArrow=classic;html=1;exitX=0.5;exitY=1;exitDx=0;exitDy=0;entryX=0.5;entryY=0;entryDx=0;entryDy=0;" parent="MeaK_7pMiD_8SfxyLZPK-163" source="MeaK_7pMiD_8SfxyLZPK-169" target="MeaK_7pMiD_8SfxyLZPK-186" edge="1">
          <mxGeometry width="50" height="50" relative="1" as="geometry">
            <mxPoint x="120" y="240" as="sourcePoint" />
            <mxPoint x="120" y="280" as="targetPoint" />
          </mxGeometry>
        </mxCell>
        <mxCell id="MeaK_7pMiD_8SfxyLZPK-193" value="" style="endArrow=classic;html=1;exitX=0.5;exitY=1;exitDx=0;exitDy=0;entryX=0.5;entryY=0;entryDx=0;entryDy=0;" parent="MeaK_7pMiD_8SfxyLZPK-163" source="MeaK_7pMiD_8SfxyLZPK-170" target="MeaK_7pMiD_8SfxyLZPK-186" edge="1">
          <mxGeometry width="50" height="50" relative="1" as="geometry">
            <mxPoint x="130" y="250" as="sourcePoint" />
            <mxPoint x="130" y="290" as="targetPoint" />
          </mxGeometry>
        </mxCell>
        <mxCell id="MeaK_7pMiD_8SfxyLZPK-194" value="" style="endArrow=classic;html=1;exitX=0.5;exitY=1;exitDx=0;exitDy=0;entryX=0.5;entryY=0;entryDx=0;entryDy=0;" parent="MeaK_7pMiD_8SfxyLZPK-163" source="MeaK_7pMiD_8SfxyLZPK-171" target="MeaK_7pMiD_8SfxyLZPK-186" edge="1">
          <mxGeometry width="50" height="50" relative="1" as="geometry">
            <mxPoint x="140" y="260" as="sourcePoint" />
            <mxPoint x="140" y="300" as="targetPoint" />
          </mxGeometry>
        </mxCell>
        <mxCell id="MeaK_7pMiD_8SfxyLZPK-195" value="" style="endArrow=classic;html=1;exitX=0.5;exitY=1;exitDx=0;exitDy=0;entryX=0.5;entryY=0;entryDx=0;entryDy=0;" parent="MeaK_7pMiD_8SfxyLZPK-163" source="MeaK_7pMiD_8SfxyLZPK-172" target="MeaK_7pMiD_8SfxyLZPK-186" edge="1">
          <mxGeometry width="50" height="50" relative="1" as="geometry">
            <mxPoint x="150" y="270" as="sourcePoint" />
            <mxPoint x="150" y="310" as="targetPoint" />
          </mxGeometry>
        </mxCell>
        <mxCell id="MeaK_7pMiD_8SfxyLZPK-198" value="" style="group" parent="1" vertex="1" connectable="0">
          <mxGeometry x="685" y="80" width="240" height="200" as="geometry" />
        </mxCell>
        <mxCell id="MeaK_7pMiD_8SfxyLZPK-199" value="`\text{SNP}_1^p`" style="ellipse;whiteSpace=wrap;html=1;aspect=fixed;" parent="MeaK_7pMiD_8SfxyLZPK-198" vertex="1">
          <mxGeometry x="20" width="40" height="40" as="geometry" />
        </mxCell>
        <mxCell id="MeaK_7pMiD_8SfxyLZPK-200" value="`\text{SNP}_2^p`" style="ellipse;whiteSpace=wrap;html=1;aspect=fixed;" parent="MeaK_7pMiD_8SfxyLZPK-198" vertex="1">
          <mxGeometry x="100" width="40" height="40" as="geometry" />
        </mxCell>
        <mxCell id="MeaK_7pMiD_8SfxyLZPK-201" value="`\text{SNP}_{sp}^p`" style="ellipse;whiteSpace=wrap;html=1;aspect=fixed;" parent="MeaK_7pMiD_8SfxyLZPK-198" vertex="1">
          <mxGeometry x="180" width="40" height="40" as="geometry" />
        </mxCell>
        <mxCell id="MeaK_7pMiD_8SfxyLZPK-202" value="&lt;b&gt;&lt;font style=&quot;font-size: 20px&quot;&gt;. . .&lt;/font&gt;&lt;/b&gt;" style="text;html=1;strokeColor=none;fillColor=none;align=center;verticalAlign=middle;whiteSpace=wrap;rounded=0;" parent="MeaK_7pMiD_8SfxyLZPK-198" vertex="1">
          <mxGeometry x="140" y="10" width="40" height="20" as="geometry" />
        </mxCell>
        <mxCell id="MeaK_7pMiD_8SfxyLZPK-203" value="" style="endArrow=classic;html=1;exitX=0.5;exitY=1;exitDx=0;exitDy=0;entryX=0.5;entryY=0;entryDx=0;entryDy=0;" parent="MeaK_7pMiD_8SfxyLZPK-198" source="MeaK_7pMiD_8SfxyLZPK-199" target="MeaK_7pMiD_8SfxyLZPK-204" edge="1">
          <mxGeometry width="50" height="50" relative="1" as="geometry">
            <mxPoint x="30" y="90" as="sourcePoint" />
            <mxPoint x="-20" y="70" as="targetPoint" />
          </mxGeometry>
        </mxCell>
        <mxCell id="MeaK_7pMiD_8SfxyLZPK-204" value="`h_{p1}^{(1)}`&amp;nbsp;" style="ellipse;whiteSpace=wrap;html=1;aspect=fixed;" parent="MeaK_7pMiD_8SfxyLZPK-198" vertex="1">
          <mxGeometry y="80" width="40" height="40" as="geometry" />
        </mxCell>
        <mxCell id="MeaK_7pMiD_8SfxyLZPK-205" value="`h_{p2}^{(1)}`&amp;nbsp;" style="ellipse;whiteSpace=wrap;html=1;aspect=fixed;" parent="MeaK_7pMiD_8SfxyLZPK-198" vertex="1">
          <mxGeometry x="60" y="80" width="40" height="40" as="geometry" />
        </mxCell>
        <mxCell id="MeaK_7pMiD_8SfxyLZPK-206" value="`h_{p3}^{(1)}`&amp;nbsp;" style="ellipse;whiteSpace=wrap;html=1;aspect=fixed;" parent="MeaK_7pMiD_8SfxyLZPK-198" vertex="1">
          <mxGeometry x="130" y="80" width="40" height="40" as="geometry" />
        </mxCell>
        <mxCell id="MeaK_7pMiD_8SfxyLZPK-207" value="`h_{pn_2}^{(1)}`&amp;nbsp;" style="ellipse;whiteSpace=wrap;html=1;aspect=fixed;" parent="MeaK_7pMiD_8SfxyLZPK-198" vertex="1">
          <mxGeometry x="200" y="80" width="40" height="40" as="geometry" />
        </mxCell>
        <mxCell id="MeaK_7pMiD_8SfxyLZPK-208" value="&lt;b&gt;&lt;font style=&quot;font-size: 18px&quot;&gt;. . .&lt;/font&gt;&lt;/b&gt;" style="text;html=1;strokeColor=none;fillColor=none;align=center;verticalAlign=middle;whiteSpace=wrap;rounded=0;" parent="MeaK_7pMiD_8SfxyLZPK-198" vertex="1">
          <mxGeometry x="164" y="86" width="40" height="20" as="geometry" />
        </mxCell>
        <mxCell id="MeaK_7pMiD_8SfxyLZPK-209" value="" style="endArrow=classic;html=1;exitX=0.5;exitY=1;exitDx=0;exitDy=0;" parent="MeaK_7pMiD_8SfxyLZPK-198" edge="1">
          <mxGeometry width="50" height="50" relative="1" as="geometry">
            <mxPoint x="120" y="40" as="sourcePoint" />
            <mxPoint x="80" y="80" as="targetPoint" />
          </mxGeometry>
        </mxCell>
        <mxCell id="MeaK_7pMiD_8SfxyLZPK-210" value="" style="endArrow=classic;html=1;exitX=0.5;exitY=1;exitDx=0;exitDy=0;entryX=0.5;entryY=0;entryDx=0;entryDy=0;" parent="MeaK_7pMiD_8SfxyLZPK-198" source="MeaK_7pMiD_8SfxyLZPK-201" target="MeaK_7pMiD_8SfxyLZPK-206" edge="1">
          <mxGeometry width="50" height="50" relative="1" as="geometry">
            <mxPoint x="205.85786437626894" y="37.142135623731065" as="sourcePoint" />
            <mxPoint x="169" y="81" as="targetPoint" />
          </mxGeometry>
        </mxCell>
        <mxCell id="MeaK_7pMiD_8SfxyLZPK-211" value="" style="endArrow=classic;html=1;exitX=0.5;exitY=1;exitDx=0;exitDy=0;entryX=0.5;entryY=0;entryDx=0;entryDy=0;" parent="MeaK_7pMiD_8SfxyLZPK-198" source="MeaK_7pMiD_8SfxyLZPK-201" target="MeaK_7pMiD_8SfxyLZPK-207" edge="1">
          <mxGeometry width="50" height="50" relative="1" as="geometry">
            <mxPoint x="140" y="190" as="sourcePoint" />
            <mxPoint x="260" y="80" as="targetPoint" />
          </mxGeometry>
        </mxCell>
        <mxCell id="MeaK_7pMiD_8SfxyLZPK-212" value="" style="endArrow=classic;html=1;exitX=0.5;exitY=1;exitDx=0;exitDy=0;entryX=0.5;entryY=0;entryDx=0;entryDy=0;" parent="MeaK_7pMiD_8SfxyLZPK-198" source="MeaK_7pMiD_8SfxyLZPK-201" target="MeaK_7pMiD_8SfxyLZPK-204" edge="1">
          <mxGeometry width="50" height="50" relative="1" as="geometry">
            <mxPoint x="220" y="190" as="sourcePoint" />
            <mxPoint x="270" y="140" as="targetPoint" />
          </mxGeometry>
        </mxCell>
        <mxCell id="MeaK_7pMiD_8SfxyLZPK-213" value="" style="endArrow=classic;html=1;exitX=0.5;exitY=1;exitDx=0;exitDy=0;entryX=0.5;entryY=0;entryDx=0;entryDy=0;" parent="MeaK_7pMiD_8SfxyLZPK-198" source="MeaK_7pMiD_8SfxyLZPK-201" target="MeaK_7pMiD_8SfxyLZPK-205" edge="1">
          <mxGeometry width="50" height="50" relative="1" as="geometry">
            <mxPoint x="220" y="190" as="sourcePoint" />
            <mxPoint x="270" y="140" as="targetPoint" />
          </mxGeometry>
        </mxCell>
        <mxCell id="MeaK_7pMiD_8SfxyLZPK-214" value="" style="endArrow=classic;html=1;entryX=0.5;entryY=0;entryDx=0;entryDy=0;" parent="MeaK_7pMiD_8SfxyLZPK-198" target="MeaK_7pMiD_8SfxyLZPK-205" edge="1">
          <mxGeometry width="50" height="50" relative="1" as="geometry">
            <mxPoint x="40" y="40" as="sourcePoint" />
            <mxPoint x="90" y="80" as="targetPoint" />
          </mxGeometry>
        </mxCell>
        <mxCell id="MeaK_7pMiD_8SfxyLZPK-215" value="" style="endArrow=classic;html=1;entryX=0.5;entryY=0;entryDx=0;entryDy=0;" parent="MeaK_7pMiD_8SfxyLZPK-198" target="MeaK_7pMiD_8SfxyLZPK-206" edge="1">
          <mxGeometry width="50" height="50" relative="1" as="geometry">
            <mxPoint x="40" y="40" as="sourcePoint" />
            <mxPoint x="250" y="140" as="targetPoint" />
          </mxGeometry>
        </mxCell>
        <mxCell id="MeaK_7pMiD_8SfxyLZPK-216" value="" style="endArrow=classic;html=1;exitX=0.5;exitY=1;exitDx=0;exitDy=0;entryX=0.5;entryY=0;entryDx=0;entryDy=0;" parent="MeaK_7pMiD_8SfxyLZPK-198" source="MeaK_7pMiD_8SfxyLZPK-199" target="MeaK_7pMiD_8SfxyLZPK-207" edge="1">
          <mxGeometry width="50" height="50" relative="1" as="geometry">
            <mxPoint x="200" y="160" as="sourcePoint" />
            <mxPoint x="250" y="110" as="targetPoint" />
          </mxGeometry>
        </mxCell>
        <mxCell id="MeaK_7pMiD_8SfxyLZPK-217" value="" style="endArrow=classic;html=1;exitX=0.5;exitY=1;exitDx=0;exitDy=0;entryX=0.5;entryY=0;entryDx=0;entryDy=0;" parent="MeaK_7pMiD_8SfxyLZPK-198" source="MeaK_7pMiD_8SfxyLZPK-200" target="MeaK_7pMiD_8SfxyLZPK-204" edge="1">
          <mxGeometry width="50" height="50" relative="1" as="geometry">
            <mxPoint x="200" y="160" as="sourcePoint" />
            <mxPoint x="250" y="110" as="targetPoint" />
          </mxGeometry>
        </mxCell>
        <mxCell id="MeaK_7pMiD_8SfxyLZPK-218" value="" style="endArrow=classic;html=1;exitX=0.5;exitY=1;exitDx=0;exitDy=0;entryX=0.5;entryY=0;entryDx=0;entryDy=0;" parent="MeaK_7pMiD_8SfxyLZPK-198" source="MeaK_7pMiD_8SfxyLZPK-200" target="MeaK_7pMiD_8SfxyLZPK-206" edge="1">
          <mxGeometry width="50" height="50" relative="1" as="geometry">
            <mxPoint x="170" y="270" as="sourcePoint" />
            <mxPoint x="250" y="110" as="targetPoint" />
          </mxGeometry>
        </mxCell>
        <mxCell id="MeaK_7pMiD_8SfxyLZPK-219" value="" style="endArrow=classic;html=1;exitX=0.5;exitY=1;exitDx=0;exitDy=0;entryX=0.5;entryY=0;entryDx=0;entryDy=0;" parent="MeaK_7pMiD_8SfxyLZPK-198" source="MeaK_7pMiD_8SfxyLZPK-200" target="MeaK_7pMiD_8SfxyLZPK-207" edge="1">
          <mxGeometry width="50" height="50" relative="1" as="geometry">
            <mxPoint x="200" y="160" as="sourcePoint" />
            <mxPoint x="250" y="110" as="targetPoint" />
          </mxGeometry>
        </mxCell>
        <mxCell id="MeaK_7pMiD_8SfxyLZPK-220" value="`h_{p1}^{(2)}`&amp;nbsp;" style="ellipse;whiteSpace=wrap;html=1;aspect=fixed;" parent="MeaK_7pMiD_8SfxyLZPK-198" vertex="1">
          <mxGeometry x="60" y="160" width="40" height="40" as="geometry" />
        </mxCell>
        <mxCell id="MeaK_7pMiD_8SfxyLZPK-221" value="`h_{pn_2}^{(2)}`&amp;nbsp;" style="ellipse;whiteSpace=wrap;html=1;aspect=fixed;" parent="MeaK_7pMiD_8SfxyLZPK-198" vertex="1">
          <mxGeometry x="140" y="160" width="40" height="40" as="geometry" />
        </mxCell>
        <mxCell id="MeaK_7pMiD_8SfxyLZPK-222" value="&lt;b&gt;&lt;font style=&quot;font-size: 20px&quot;&gt;. . .&lt;/font&gt;&lt;/b&gt;" style="text;html=1;strokeColor=none;fillColor=none;align=center;verticalAlign=middle;whiteSpace=wrap;rounded=0;" parent="MeaK_7pMiD_8SfxyLZPK-198" vertex="1">
          <mxGeometry x="100" y="170" width="40" height="20" as="geometry" />
        </mxCell>
        <mxCell id="MeaK_7pMiD_8SfxyLZPK-223" value="" style="endArrow=classic;html=1;exitX=0.5;exitY=1;exitDx=0;exitDy=0;entryX=0.5;entryY=0;entryDx=0;entryDy=0;" parent="MeaK_7pMiD_8SfxyLZPK-198" source="MeaK_7pMiD_8SfxyLZPK-204" target="MeaK_7pMiD_8SfxyLZPK-220" edge="1">
          <mxGeometry width="50" height="50" relative="1" as="geometry">
            <mxPoint x="-120" y="200" as="sourcePoint" />
            <mxPoint x="-70" y="150" as="targetPoint" />
          </mxGeometry>
        </mxCell>
        <mxCell id="MeaK_7pMiD_8SfxyLZPK-224" value="" style="endArrow=classic;html=1;exitX=0.5;exitY=1;exitDx=0;exitDy=0;entryX=0.5;entryY=0;entryDx=0;entryDy=0;" parent="MeaK_7pMiD_8SfxyLZPK-198" source="MeaK_7pMiD_8SfxyLZPK-205" target="MeaK_7pMiD_8SfxyLZPK-220" edge="1">
          <mxGeometry width="50" height="50" relative="1" as="geometry">
            <mxPoint x="10" y="130" as="sourcePoint" />
            <mxPoint x="10" y="170" as="targetPoint" />
          </mxGeometry>
        </mxCell>
        <mxCell id="MeaK_7pMiD_8SfxyLZPK-225" value="" style="endArrow=classic;html=1;exitX=0.5;exitY=1;exitDx=0;exitDy=0;entryX=0.5;entryY=0;entryDx=0;entryDy=0;" parent="MeaK_7pMiD_8SfxyLZPK-198" source="MeaK_7pMiD_8SfxyLZPK-206" target="MeaK_7pMiD_8SfxyLZPK-220" edge="1">
          <mxGeometry width="50" height="50" relative="1" as="geometry">
            <mxPoint x="20" y="140" as="sourcePoint" />
            <mxPoint x="20" y="180" as="targetPoint" />
          </mxGeometry>
        </mxCell>
        <mxCell id="MeaK_7pMiD_8SfxyLZPK-226" value="" style="endArrow=classic;html=1;exitX=0.5;exitY=1;exitDx=0;exitDy=0;entryX=0.5;entryY=0;entryDx=0;entryDy=0;" parent="MeaK_7pMiD_8SfxyLZPK-198" source="MeaK_7pMiD_8SfxyLZPK-207" target="MeaK_7pMiD_8SfxyLZPK-220" edge="1">
          <mxGeometry width="50" height="50" relative="1" as="geometry">
            <mxPoint x="30" y="150" as="sourcePoint" />
            <mxPoint x="30" y="190" as="targetPoint" />
          </mxGeometry>
        </mxCell>
        <mxCell id="MeaK_7pMiD_8SfxyLZPK-227" value="" style="endArrow=classic;html=1;exitX=0.5;exitY=1;exitDx=0;exitDy=0;entryX=0.5;entryY=0;entryDx=0;entryDy=0;" parent="MeaK_7pMiD_8SfxyLZPK-198" source="MeaK_7pMiD_8SfxyLZPK-204" target="MeaK_7pMiD_8SfxyLZPK-221" edge="1">
          <mxGeometry width="50" height="50" relative="1" as="geometry">
            <mxPoint x="120" y="240" as="sourcePoint" />
            <mxPoint x="120" y="280" as="targetPoint" />
          </mxGeometry>
        </mxCell>
        <mxCell id="MeaK_7pMiD_8SfxyLZPK-228" value="" style="endArrow=classic;html=1;exitX=0.5;exitY=1;exitDx=0;exitDy=0;entryX=0.5;entryY=0;entryDx=0;entryDy=0;" parent="MeaK_7pMiD_8SfxyLZPK-198" source="MeaK_7pMiD_8SfxyLZPK-205" target="MeaK_7pMiD_8SfxyLZPK-221" edge="1">
          <mxGeometry width="50" height="50" relative="1" as="geometry">
            <mxPoint x="130" y="250" as="sourcePoint" />
            <mxPoint x="130" y="290" as="targetPoint" />
          </mxGeometry>
        </mxCell>
        <mxCell id="MeaK_7pMiD_8SfxyLZPK-229" value="" style="endArrow=classic;html=1;exitX=0.5;exitY=1;exitDx=0;exitDy=0;entryX=0.5;entryY=0;entryDx=0;entryDy=0;" parent="MeaK_7pMiD_8SfxyLZPK-198" source="MeaK_7pMiD_8SfxyLZPK-206" target="MeaK_7pMiD_8SfxyLZPK-221" edge="1">
          <mxGeometry width="50" height="50" relative="1" as="geometry">
            <mxPoint x="140" y="260" as="sourcePoint" />
            <mxPoint x="140" y="300" as="targetPoint" />
          </mxGeometry>
        </mxCell>
        <mxCell id="MeaK_7pMiD_8SfxyLZPK-230" value="" style="endArrow=classic;html=1;exitX=0.5;exitY=1;exitDx=0;exitDy=0;entryX=0.5;entryY=0;entryDx=0;entryDy=0;" parent="MeaK_7pMiD_8SfxyLZPK-198" source="MeaK_7pMiD_8SfxyLZPK-207" target="MeaK_7pMiD_8SfxyLZPK-221" edge="1">
          <mxGeometry width="50" height="50" relative="1" as="geometry">
            <mxPoint x="150" y="270" as="sourcePoint" />
            <mxPoint x="150" y="310" as="targetPoint" />
          </mxGeometry>
        </mxCell>
        <mxCell id="MeaK_7pMiD_8SfxyLZPK-265" value="&lt;b&gt;&lt;font style=&quot;font-size: 20px&quot;&gt;. . .&lt;/font&gt;&lt;/b&gt;" style="text;html=1;strokeColor=none;fillColor=none;align=center;verticalAlign=middle;whiteSpace=wrap;rounded=0;" parent="1" vertex="1">
          <mxGeometry x="640" y="153" width="40" height="40" as="geometry" />
        </mxCell>
        <mxCell id="MeaK_7pMiD_8SfxyLZPK-266" value="&lt;font style=&quot;font-size: 16.000000953674316px&quot;&gt;&lt;b&gt;筛选出的基因1&lt;/b&gt;&lt;/font&gt;" style="text;html=1;strokeColor=none;fillColor=none;align=center;verticalAlign=middle;whiteSpace=wrap;rounded=0;" parent="1" vertex="1">
          <mxGeometry x="140" y="50" width="240" height="20" as="geometry" />
        </mxCell>
        <mxCell id="MeaK_7pMiD_8SfxyLZPK-267" value="&lt;font style=&quot;font-size: 16.000000953674316px&quot;&gt;&lt;b&gt;筛选出的基因2&lt;/b&gt;&lt;/font&gt;" style="text;html=1;strokeColor=none;fillColor=none;align=center;verticalAlign=middle;whiteSpace=wrap;rounded=0;" parent="1" vertex="1">
          <mxGeometry x="400" y="50" width="240" height="20" as="geometry" />
        </mxCell>
        <mxCell id="MeaK_7pMiD_8SfxyLZPK-268" value="&lt;font style=&quot;font-size: 16.000000953674316px&quot;&gt;&lt;b&gt;筛选出的基因p&lt;/b&gt;&lt;/font&gt;" style="text;html=1;strokeColor=none;fillColor=none;align=center;verticalAlign=middle;whiteSpace=wrap;rounded=0;" parent="1" vertex="1">
          <mxGeometry x="681" y="50" width="240" height="20" as="geometry" />
        </mxCell>
        <mxCell id="MeaK_7pMiD_8SfxyLZPK-269" value="`h&#39;_1`" style="ellipse;whiteSpace=wrap;html=1;aspect=fixed;fillColor=#ffe6cc;strokeColor=#d79b00;" parent="1" vertex="1">
          <mxGeometry x="225" y="321" width="70" height="70" as="geometry" />
        </mxCell>
        <mxCell id="MeaK_7pMiD_8SfxyLZPK-271" value="`h&#39;_2`" style="ellipse;whiteSpace=wrap;html=1;aspect=fixed;fillColor=#ffe6cc;strokeColor=#d79b00;" parent="1" vertex="1">
          <mxGeometry x="487" y="321" width="70" height="70" as="geometry" />
        </mxCell>
        <mxCell id="MeaK_7pMiD_8SfxyLZPK-273" value="`h&#39;_p`" style="ellipse;whiteSpace=wrap;html=1;aspect=fixed;fillColor=#ffe6cc;strokeColor=#d79b00;" parent="1" vertex="1">
          <mxGeometry x="769" y="321" width="70" height="70" as="geometry" />
        </mxCell>
        <mxCell id="MeaK_7pMiD_8SfxyLZPK-274" value="&lt;b&gt;&lt;font style=&quot;font-size: 20px&quot; color=&quot;#ffb570&quot;&gt;. . .&lt;/font&gt;&lt;/b&gt;" style="text;html=1;strokeColor=none;fillColor=none;align=center;verticalAlign=middle;whiteSpace=wrap;rounded=0;" parent="1" vertex="1">
          <mxGeometry x="580" y="371" width="170" height="20" as="geometry" />
        </mxCell>
        <mxCell id="MeaK_7pMiD_8SfxyLZPK-275" value="" style="endArrow=classic;html=1;exitX=0.5;exitY=1;exitDx=0;exitDy=0;entryX=0.5;entryY=0;entryDx=0;entryDy=0;fillColor=#ffe6cc;strokeColor=#D79B00;" parent="1" source="MeaK_7pMiD_8SfxyLZPK-80" target="MeaK_7pMiD_8SfxyLZPK-269" edge="1">
          <mxGeometry x="110" y="30" width="50" height="50" as="geometry">
            <mxPoint x="220" y="320" as="sourcePoint" />
            <mxPoint x="270" y="270" as="targetPoint" />
          </mxGeometry>
        </mxCell>
        <mxCell id="MeaK_7pMiD_8SfxyLZPK-282" value="" style="endArrow=classic;html=1;strokeColor=#D79B00;exitX=0.658;exitY=0.99;exitDx=0;exitDy=0;exitPerimeter=0;entryX=0.5;entryY=0;entryDx=0;entryDy=0;" parent="1" source="MeaK_7pMiD_8SfxyLZPK-196" target="MeaK_7pMiD_8SfxyLZPK-269" edge="1">
          <mxGeometry x="110" y="30" width="50" height="50" as="geometry">
            <mxPoint x="520" y="390" as="sourcePoint" />
            <mxPoint x="570" y="340" as="targetPoint" />
          </mxGeometry>
        </mxCell>
        <mxCell id="MeaK_7pMiD_8SfxyLZPK-286" value="" style="endArrow=classic;html=1;strokeColor=#D79B00;exitX=0.313;exitY=1;exitDx=0;exitDy=0;exitPerimeter=0;entryX=0.5;entryY=0;entryDx=0;entryDy=0;" parent="1" source="MeaK_7pMiD_8SfxyLZPK-197" target="MeaK_7pMiD_8SfxyLZPK-271" edge="1">
          <mxGeometry x="110" y="30" width="50" height="50" as="geometry">
            <mxPoint x="520" y="390" as="sourcePoint" />
            <mxPoint x="440" y="360" as="targetPoint" />
          </mxGeometry>
        </mxCell>
        <mxCell id="MeaK_7pMiD_8SfxyLZPK-291" value="" style="endArrow=classic;html=1;strokeColor=#D79B00;entryX=0.5;entryY=0;entryDx=0;entryDy=0;" parent="1" target="MeaK_7pMiD_8SfxyLZPK-271" edge="1">
          <mxGeometry x="110" y="30" width="50" height="50" as="geometry">
            <mxPoint x="560" y="280" as="sourcePoint" />
            <mxPoint x="570" y="340" as="targetPoint" />
          </mxGeometry>
        </mxCell>
        <mxCell id="MeaK_7pMiD_8SfxyLZPK-298" value="" style="endArrow=classic;html=1;strokeColor=#D79B00;exitX=0.5;exitY=1;exitDx=0;exitDy=0;entryX=0.5;entryY=0;entryDx=0;entryDy=0;" parent="1" source="MeaK_7pMiD_8SfxyLZPK-220" target="MeaK_7pMiD_8SfxyLZPK-273" edge="1">
          <mxGeometry x="110" y="30" width="50" height="50" as="geometry">
            <mxPoint x="520" y="390" as="sourcePoint" />
            <mxPoint x="570" y="340" as="targetPoint" />
          </mxGeometry>
        </mxCell>
        <mxCell id="MeaK_7pMiD_8SfxyLZPK-301" value="" style="endArrow=classic;html=1;strokeColor=#D79B00;exitX=0.5;exitY=1;exitDx=0;exitDy=0;entryX=0.5;entryY=0;entryDx=0;entryDy=0;" parent="1" source="MeaK_7pMiD_8SfxyLZPK-221" target="MeaK_7pMiD_8SfxyLZPK-273" edge="1">
          <mxGeometry x="110" y="30" width="50" height="50" as="geometry">
            <mxPoint x="520" y="390" as="sourcePoint" />
            <mxPoint x="570" y="340" as="targetPoint" />
          </mxGeometry>
        </mxCell>
        <mxCell id="MeaK_7pMiD_8SfxyLZPK-302" value="" style="endArrow=classic;html=1;strokeColor=#D79B00;entryX=0;entryY=0.5;entryDx=0;entryDy=0;exitX=0.5;exitY=1;exitDx=0;exitDy=0;" parent="1" target="MeaK_7pMiD_8SfxyLZPK-303" edge="1" source="MeaK_7pMiD_8SfxyLZPK-269">
          <mxGeometry x="110" y="30" width="50" height="50" as="geometry">
            <mxPoint x="240" y="416" as="sourcePoint" />
            <mxPoint x="290" y="366" as="targetPoint" />
          </mxGeometry>
        </mxCell>
        <mxCell id="MeaK_7pMiD_8SfxyLZPK-303" value="&lt;font style=&quot;font-size: 16.00000953674316px&quot;&gt;`y`&amp;nbsp;&lt;/font&gt;" style="ellipse;whiteSpace=wrap;html=1;aspect=fixed;fillColor=#ffe6cc;strokeColor=#d79b00;" parent="1" vertex="1">
          <mxGeometry x="487" y="420" width="70" height="70" as="geometry" />
        </mxCell>
        <mxCell id="MeaK_7pMiD_8SfxyLZPK-304" value="" style="endArrow=classic;html=1;strokeColor=#D79B00;exitX=0.5;exitY=1;exitDx=0;exitDy=0;entryX=0.5;entryY=0;entryDx=0;entryDy=0;" parent="1" source="MeaK_7pMiD_8SfxyLZPK-271" target="MeaK_7pMiD_8SfxyLZPK-303" edge="1">
          <mxGeometry x="110" y="30" width="50" height="50" as="geometry">
            <mxPoint x="500" y="370" as="sourcePoint" />
            <mxPoint x="550" y="320" as="targetPoint" />
          </mxGeometry>
        </mxCell>
        <mxCell id="MeaK_7pMiD_8SfxyLZPK-306" value="" style="endArrow=classic;html=1;strokeColor=#D79B00;exitX=0.371;exitY=1.014;exitDx=0;exitDy=0;exitPerimeter=0;entryX=1;entryY=0.5;entryDx=0;entryDy=0;" parent="1" source="MeaK_7pMiD_8SfxyLZPK-273" target="MeaK_7pMiD_8SfxyLZPK-303" edge="1">
          <mxGeometry x="110" y="30" width="50" height="50" as="geometry">
            <mxPoint x="500" y="370" as="sourcePoint" />
            <mxPoint x="550" y="320" as="targetPoint" />
          </mxGeometry>
        </mxCell>
        <mxCell id="MeaK_7pMiD_8SfxyLZPK-310" value="&lt;font style=&quot;font-size: 16px&quot; color=&quot;#0000cc&quot;&gt;&lt;b&gt;模型参数来自于变量筛选阶段&lt;/b&gt;&lt;/font&gt;" style="text;html=1;strokeColor=none;fillColor=none;align=center;verticalAlign=middle;whiteSpace=wrap;rounded=0;dashed=1;" parent="1" vertex="1">
          <mxGeometry x="950" y="163" width="100" height="20" as="geometry" />
        </mxCell>
        <mxCell id="MeaK_7pMiD_8SfxyLZPK-311" value="&lt;font style=&quot;font-size: 16px&quot; color=&quot;#0000cc&quot;&gt;&lt;b&gt;模型参数通过重新拟合得到&lt;/b&gt;&lt;/font&gt;" style="text;html=1;strokeColor=none;fillColor=none;align=center;verticalAlign=middle;whiteSpace=wrap;rounded=0;dashed=1;" parent="1" vertex="1">
          <mxGeometry x="950" y="370" width="100" height="21" as="geometry" />
        </mxCell>
      </root>
    </mxGraphModel>
  </diagram>
</mxfile>
